<svg width="28" height="28" viewBox="0 0 28 28" fill="none" xmlns="http://www.w3.org/2000/svg">
<path fill-rule="evenodd" clip-rule="evenodd" d="M12.6724 1.42245C12.4978 1.59662 12.3593 1.80353 12.2648 2.03133C12.1702 2.25912 12.1216 2.50332 12.1216 2.74995C12.1216 2.99658 12.1702 3.24078 12.2648 3.46857C12.3593 3.69637 12.4978 3.90328 12.6724 4.07745L22.5987 13.9999L12.6724 23.9225C12.4981 24.0968 12.3598 24.3037 12.2655 24.5315C12.1711 24.7593 12.1226 25.0034 12.1226 25.25C12.1226 25.4965 12.1711 25.7406 12.2655 25.9684C12.3598 26.1962 12.4981 26.4031 12.6724 26.5775C12.8468 26.7518 13.0537 26.8901 13.2815 26.9844C13.5093 27.0788 13.7534 27.1273 13.9999 27.1273C14.2465 27.1273 14.4906 27.0788 14.7184 26.9844C14.9462 26.8901 15.1531 26.7518 15.3274 26.5775L26.5774 15.3274C26.7521 15.1533 26.8906 14.9464 26.9851 14.7186C27.0796 14.4908 27.1283 14.2466 27.1283 13.9999C27.1283 13.7533 27.0796 13.5091 26.9851 13.2813C26.8906 13.0535 26.7521 12.8466 26.5774 12.6724L15.3274 1.42245C15.1533 1.24784 14.9464 1.1093 14.7186 1.01478C14.4908 0.920255 14.2466 0.871598 13.9999 0.871598C13.7533 0.871598 13.5091 0.920255 13.2813 1.01478C13.0535 1.1093 12.8466 1.24784 12.6724 1.42245Z" fill="#404357"/>
<path fill-rule="evenodd" clip-rule="evenodd" d="M0.875004 14C0.875004 14.4973 1.07255 14.9742 1.42418 15.3258C1.77581 15.6775 2.25272 15.875 2.75 15.875L21.5 15.875C21.9973 15.875 22.4742 15.6775 22.8258 15.3258C23.1775 14.9742 23.375 14.4973 23.375 14C23.375 13.5027 23.1775 13.0258 22.8258 12.6742C22.4742 12.3225 21.9973 12.125 21.5 12.125L2.75 12.125C2.25272 12.125 1.77581 12.3225 1.42418 12.6742C1.07255 13.0258 0.875004 13.5027 0.875004 14Z" fill="#404357"/>
</svg>
