<svg width="28" height="28" viewBox="0 0 28 28" fill="none" xmlns="http://www.w3.org/2000/svg">
<path fill-rule="evenodd" clip-rule="evenodd" d="M12.6725 1.42245C12.4979 1.59662 12.3594 1.80353 12.2649 2.03133C12.1703 2.25912 12.1217 2.50332 12.1217 2.74995C12.1217 2.99658 12.1703 3.24078 12.2649 3.46857C12.3594 3.69637 12.4979 3.90328 12.6725 4.07745L22.5988 13.9999L12.6725 23.9225C12.4982 24.0968 12.3599 24.3037 12.2656 24.5315C12.1712 24.7593 12.1227 25.0034 12.1227 25.25C12.1227 25.4965 12.1712 25.7406 12.2656 25.9684C12.3599 26.1962 12.4982 26.4031 12.6725 26.5775C12.8469 26.7518 13.0538 26.8901 13.2816 26.9844C13.5094 27.0788 13.7535 27.1273 14 27.1273C14.2466 27.1273 14.4907 27.0788 14.7185 26.9844C14.9462 26.8901 15.1532 26.7518 15.3275 26.5775L26.5775 15.3274C26.7521 15.1533 26.8907 14.9464 26.9852 14.7186C27.0797 14.4908 27.1284 14.2466 27.1284 13.9999C27.1284 13.7533 27.0797 13.5091 26.9852 13.2813C26.8907 13.0535 26.7521 12.8466 26.5775 12.6724L15.3275 1.42245C15.1534 1.24784 14.9465 1.1093 14.7187 1.01478C14.4909 0.920255 14.2467 0.871598 14 0.871598C13.7534 0.871598 13.5092 0.920255 13.2814 1.01478C13.0536 1.1093 12.8467 1.24784 12.6725 1.42245Z" fill="#555E6A"/>
<path fill-rule="evenodd" clip-rule="evenodd" d="M0.875065 14C0.875065 14.4973 1.07261 14.9742 1.42424 15.3258C1.77587 15.6775 2.25278 15.875 2.75006 15.875L21.5001 15.875C21.9973 15.875 22.4743 15.6775 22.8259 15.3258C23.1775 14.9742 23.3751 14.4973 23.3751 14C23.3751 13.5027 23.1775 13.0258 22.8259 12.6742C22.4743 12.3225 21.9973 12.125 21.5001 12.125L2.75006 12.125C2.25278 12.125 1.77587 12.3225 1.42424 12.6742C1.07261 13.0258 0.875065 13.5027 0.875065 14Z" fill="#555E6A"/>
</svg>
