<svg width="28" height="28" viewBox="0 0 28 28" fill="none" xmlns="http://www.w3.org/2000/svg">
<path fill-rule="evenodd" clip-rule="evenodd" d="M15.3276 26.5777C15.5022 26.4035 15.6407 26.1966 15.7352 25.9688C15.8298 25.741 15.8784 25.4968 15.8784 25.2502C15.8784 25.0035 15.8298 24.7593 15.7352 24.5315C15.6407 24.3038 15.5022 24.0968 15.3276 23.9227L5.40131 14.0002L15.3276 4.07767C15.5019 3.90334 15.6402 3.69638 15.7345 3.46861C15.8289 3.24084 15.8774 2.99671 15.8774 2.75017C15.8774 2.50363 15.8289 2.25951 15.7345 2.03173C15.6402 1.80396 15.5019 1.597 15.3276 1.42267C15.1532 1.24834 14.9463 1.11006 14.7185 1.01571C14.4907 0.921362 14.2466 0.872803 14.0001 0.872803C13.7535 0.872803 13.5094 0.921362 13.2816 1.01571C13.0538 1.11006 12.8469 1.24834 12.6726 1.42267L1.42255 12.6727C1.24794 12.8468 1.10941 13.0538 1.01488 13.2815C0.920358 13.5093 0.871704 13.7535 0.871704 14.0002C0.871704 14.2468 0.920358 14.491 1.01488 14.7188C1.10941 14.9466 1.24794 15.1535 1.42255 15.3277L12.6726 26.5777C12.8467 26.7523 13.0536 26.8908 13.2814 26.9853C13.5092 27.0799 13.7534 27.1285 14.0001 27.1285C14.2467 27.1285 14.4909 27.0799 14.7187 26.9853C14.9465 26.8908 15.1534 26.7523 15.3276 26.5777Z" fill="#404357"/>
<path fill-rule="evenodd" clip-rule="evenodd" d="M27.125 14C27.125 13.5027 26.9275 13.0258 26.5758 12.6742C26.2242 12.3225 25.7473 12.125 25.25 12.125H6.5C6.00272 12.125 5.52581 12.3225 5.17418 12.6742C4.82254 13.0258 4.625 13.5027 4.625 14C4.625 14.4973 4.82254 14.9742 5.17418 15.3258C5.52581 15.6775 6.00272 15.875 6.5 15.875H25.25C25.7473 15.875 26.2242 15.6775 26.5758 15.3258C26.9275 14.9742 27.125 14.4973 27.125 14Z" fill="#404357"/>
</svg>
