<svg width="28" height="28" viewBox="0 0 28 28" fill="none" xmlns="http://www.w3.org/2000/svg">
<path fill-rule="evenodd" clip-rule="evenodd" d="M15.3276 26.5775C15.5022 26.4034 15.6407 26.1965 15.7352 25.9687C15.8298 25.7409 15.8784 25.4967 15.8784 25.25C15.8784 25.0034 15.8298 24.7592 15.7352 24.5314C15.6407 24.3036 15.5022 24.0967 15.3276 23.9225L5.40131 14L15.3276 4.07755C15.5019 3.90322 15.6402 3.69626 15.7345 3.46849C15.8289 3.24072 15.8774 2.99659 15.8774 2.75005C15.8774 2.50351 15.8289 2.25938 15.7345 2.03161C15.6402 1.80384 15.5019 1.59688 15.3276 1.42255C15.1532 1.24822 14.9463 1.10993 14.7185 1.01559C14.4907 0.92124 14.2466 0.872681 14.0001 0.872681C13.7535 0.872681 13.5094 0.92124 13.2816 1.01559C13.0538 1.10993 12.8469 1.24822 12.6726 1.42255L1.42255 12.6725C1.24794 12.8467 1.10941 13.0536 1.01488 13.2814C0.920358 13.5092 0.871704 13.7534 0.871704 14C0.871704 14.2467 0.920358 14.4909 1.01488 14.7187C1.10941 14.9465 1.24794 15.1534 1.42255 15.3275L12.6726 26.5775C12.8467 26.7522 13.0536 26.8907 13.2814 26.9852C13.5092 27.0797 13.7534 27.1284 14.0001 27.1284C14.2467 27.1284 14.4909 27.0797 14.7187 26.9852C14.9465 26.8907 15.1534 26.7522 15.3276 26.5775Z" fill="#555E6A"/>
<path fill-rule="evenodd" clip-rule="evenodd" d="M27.1251 14C27.1251 13.5027 26.9275 13.0258 26.5759 12.6742C26.2243 12.3225 25.7473 12.125 25.2501 12.125H6.50006C6.00278 12.125 5.52587 12.3225 5.17424 12.6742C4.82261 13.0258 4.62506 13.5027 4.62506 14C4.62506 14.4973 4.82261 14.9742 5.17424 15.3258C5.52587 15.6775 6.00278 15.875 6.50006 15.875H25.2501C25.7473 15.875 26.2243 15.6775 26.5759 15.3258C26.9275 14.9742 27.1251 14.4973 27.1251 14Z" fill="#555E6A"/>
</svg>
