<svg width="28" height="28" viewBox="0 0 28 28" fill="none" xmlns="http://www.w3.org/2000/svg">
<path d="M0 3.5C0 2.57174 0.368749 1.6815 1.02513 1.02513C1.6815 0.368749 2.57174 0 3.5 0L24.5 0C25.4283 0 26.3185 0.368749 26.9749 1.02513C27.6313 1.6815 28 2.57174 28 3.5V24.5C28 25.4283 27.6313 26.3185 26.9749 26.9749C26.3185 27.6313 25.4283 28 24.5 28H3.5C2.57174 28 1.6815 27.6313 1.02513 26.9749C0.368749 26.3185 0 25.4283 0 24.5V3.5Z" fill="#007BFF"/>
<path fill-rule="evenodd" clip-rule="evenodd" d="M19.1972 8.6975C19.4421 8.45473 19.7727 8.3181 20.1175 8.31714C20.4624 8.31619 20.7938 8.451 21.04 8.69242C21.2863 8.93384 21.4276 9.26247 21.4335 9.60727C21.4394 9.95207 21.3093 10.2853 21.0714 10.535L14.0854 19.2675C13.9653 19.3968 13.8204 19.5006 13.6593 19.5726C13.4983 19.6447 13.3243 19.6835 13.1479 19.6868C12.9714 19.69 12.7961 19.6577 12.6325 19.5917C12.4688 19.5256 12.3202 19.4273 12.1954 19.3025L7.56667 14.672C7.43771 14.5518 7.33428 14.4069 7.26255 14.2459C7.19081 14.0849 7.15224 13.9111 7.14913 13.7349C7.14602 13.5587 7.17844 13.3836 7.24445 13.2202C7.31046 13.0568 7.40872 12.9083 7.53335 12.7837C7.65798 12.6591 7.80644 12.5608 7.96987 12.4948C8.1333 12.4288 8.30835 12.3964 8.48458 12.3995C8.66081 12.4026 8.83461 12.4412 8.99561 12.5129C9.15661 12.5846 9.30151 12.6881 9.42166 12.817L13.0862 16.4798L19.1639 8.736C19.1748 8.72245 19.1864 8.70959 19.1989 8.6975H19.1972Z" fill="#E8EDF7"/>
</svg>
