<svg width="24" height="24" viewBox="0 0 24 24" fill="none" xmlns="http://www.w3.org/2000/svg">
<g clip-path="url(#clip0)">
<path d="M18.4494 4.96363L17.173 4.85062L21.8799 0.143738C22.0715 -0.0479125 22.3829 -0.0479125 22.5751 0.143738C22.7668 0.335908 22.7668 0.646819 22.5751 0.838469L18.4494 4.96363ZM23.8453 1.41446C23.6531 1.22281 23.3417 1.22281 23.1495 1.41446L19.5066 5.05737L20.7841 5.16986L23.8453 2.10919C24.037 1.91702 24.037 1.60611 23.8453 1.41446ZM20.2633 5.69065L18.9864 5.57764V5.57816L18.5031 5.53494L15.6231 5.28027L0.0109253 20.8935L3.11795 24L21.332 5.78544L20.2633 5.69117V5.69065Z" fill="#1E1D2B"/>
</g>
<defs>
<clipPath id="clip0">
<rect width="24" height="24" fill="white"/>
</clipPath>
</defs>
</svg>
