<svg width="120" height="120" viewBox="0 0 120 120" fill="none" xmlns="http://www.w3.org/2000/svg">
<path fill-rule="evenodd" clip-rule="evenodd" d="M41.2428 3.74985C41.2428 2.75533 41.6378 1.80154 42.3411 1.09831C43.0443 0.395073 43.9981 0 44.9926 0L74.9914 0C75.9859 0 76.9397 0.395073 77.643 1.09831C78.3462 1.80154 78.7413 2.75533 78.7413 3.74985C78.7413 4.74437 78.3462 5.69816 77.643 6.4014C76.9397 7.10463 75.9859 7.4997 74.9914 7.4997H67.4917V15.5244C77.4876 16.9719 86.854 21.2714 94.4682 27.9074C102.082 34.5435 107.621 43.2346 110.421 52.939C113.221 62.6433 113.162 72.9492 110.253 82.6213C107.344 92.2934 101.707 100.921 94.0182 107.471L100.145 113.591C100.85 114.295 101.245 115.25 101.245 116.245C101.245 117.241 100.85 118.196 100.145 118.9C99.4413 119.604 98.4863 120 97.4905 120C96.4947 120 95.5397 119.604 94.8356 118.9L87.9059 111.963C79.5474 117.225 69.8688 120.01 59.992 119.995C50.116 120.012 40.4374 117.23 32.0781 111.971L25.1484 118.9C24.4443 119.604 23.4893 120 22.4935 120C21.4977 120 20.5427 119.604 19.8386 118.9C19.1345 118.196 18.7389 117.241 18.7389 116.245C18.7389 115.25 19.1345 114.295 19.8386 113.591L25.9659 107.471C18.2771 100.921 12.6402 92.2934 9.73096 82.6213C6.82167 72.9492 6.76338 62.6433 9.56308 52.939C12.3628 43.2346 17.9017 34.5435 25.5159 27.9074C33.13 21.2714 42.4964 16.9719 52.4923 15.5244V7.4997H44.9851C43.9906 7.4997 43.0368 7.10463 42.3336 6.4014C41.6303 5.69816 41.2353 4.74437 41.2353 3.74985H41.2428ZM6.44413 40.4009C4.50365 38.713 2.93119 36.6439 1.82452 34.3223C0.717861 32.0007 0.100665 29.4763 0.0113182 26.9059C-0.0780289 24.3356 0.362384 21.7744 1.30517 19.3816C2.24795 16.9887 3.67295 14.8154 5.49153 12.9969C7.31012 11.1783 9.48341 9.75327 11.8762 8.81049C14.2691 7.86771 16.8303 7.42729 19.4006 7.51664C21.9709 7.60599 24.4954 8.22318 26.817 9.32985C29.1386 10.4365 31.2077 12.009 32.8956 13.9494C21.4957 19.7373 12.232 29.001 6.44413 40.4009ZM101.24 7.4997C95.5931 7.4997 90.5233 9.99711 87.0884 13.9494C98.4884 19.7373 107.752 29.001 113.54 40.4009C116.423 37.8951 118.472 34.5683 119.413 30.8658C120.354 27.1634 120.141 23.2619 118.803 19.6836C117.466 16.1054 115.067 13.0211 111.928 10.8437C108.789 8.66625 105.06 7.49953 101.24 7.4997ZM63.7419 37.4985C63.7419 36.504 63.3468 35.5502 62.6436 34.847C61.9403 34.1437 60.9865 33.7487 59.992 33.7487C58.9975 33.7487 58.0437 34.1437 57.3405 34.847C56.6372 35.5502 56.2422 36.504 56.2422 37.4985V66.6124L45.3901 88.3165C45.165 88.7572 45.0293 89.2381 44.9909 89.7315C44.9525 90.2249 45.0121 90.721 45.1664 91.1912C45.3207 91.6615 45.5665 92.0965 45.8897 92.4713C46.2128 92.8461 46.607 93.1532 47.0495 93.3749C47.4919 93.5966 47.9738 93.7285 48.4675 93.7631C48.9612 93.7977 49.4568 93.7342 49.9258 93.5763C50.3949 93.4184 50.828 93.1692 51.2002 92.8431C51.5725 92.5171 51.8765 92.1205 52.0948 91.6764L63.3444 69.1773C63.6057 68.6558 63.7418 68.0806 63.7419 67.4973V37.4985Z" fill="#EDEDEF"/>
</svg>
