<svg width="60" height="60" viewBox="0 0 60 60" fill="none" xmlns="http://www.w3.org/2000/svg">
<path fill-rule="evenodd" clip-rule="evenodd" d="M44.4524 15.5475C44.627 15.7217 44.7656 15.9286 44.8601 16.1564C44.9546 16.3842 45.0033 16.6284 45.0033 16.875C45.0033 17.1216 44.9546 17.3658 44.8601 17.5936C44.7656 17.8214 44.627 18.0283 44.4524 18.2025L18.2024 44.4525C17.8504 44.8046 17.3728 45.0024 16.8749 45.0024C16.377 45.0024 15.8995 44.8046 15.5474 44.4525C15.1954 44.1004 14.9976 43.6229 14.9976 43.125C14.9976 42.6271 15.1954 42.1496 15.5474 41.7975L41.7974 15.5475C41.9716 15.3729 42.1785 15.2344 42.4063 15.1398C42.6341 15.0453 42.8783 14.9967 43.1249 14.9967C43.3715 14.9967 43.6157 15.0453 43.8435 15.1398C44.0713 15.2344 44.2782 15.3729 44.4524 15.5475Z" fill="#EDEDEF"/>
<path fill-rule="evenodd" clip-rule="evenodd" d="M15.5469 15.5475C15.3723 15.7217 15.2338 15.9286 15.1393 16.1564C15.0447 16.3842 14.9961 16.6284 14.9961 16.875C14.9961 17.1216 15.0447 17.3658 15.1393 17.5936C15.2338 17.8214 15.3723 18.0283 15.5469 18.2025L41.7969 44.4525C42.149 44.8046 42.6265 45.0024 43.1244 45.0024C43.6224 45.0024 44.0999 44.8046 44.4519 44.4525C44.804 44.1004 45.0018 43.6229 45.0018 43.125C45.0018 42.6271 44.804 42.1496 44.4519 41.7975L18.2019 15.5475C18.0278 15.3729 17.8209 15.2344 17.5931 15.1398C17.3653 15.0453 17.1211 14.9967 16.8744 14.9967C16.6278 14.9967 16.3836 15.0453 16.1558 15.1398C15.928 15.2344 15.7211 15.3729 15.5469 15.5475Z" fill="#EDEDEF"/>
</svg>
