<svg width="24" height="24" viewBox="0 0 24 24" fill="none" xmlns="http://www.w3.org/2000/svg">
<g clip-path="url(#clip0)">
<path d="M18.8979 4.75776C18.5339 3.12306 17.3911 1.01641 15.812 0.277898C13.6127 -0.750864 10.9073 1.16633 12.1659 4.54804L14.5592 3.42958C14.9356 3.25361 15.3832 3.41623 15.5591 3.79256C15.735 4.16889 15.5725 4.61658 15.1961 4.79245L12.8321 5.89723C13.1777 6.46359 13.5739 6.97099 14.0051 7.39922C13.5512 7.86313 13.1306 8.36804 12.7762 8.86204C11.6983 8.04446 10.3478 7.84644 9.22258 8.56765L6.21918 10.4928C5.86631 10.7191 5.39562 10.6134 5.17387 10.2558C4.9554 9.9034 5.07665 9.43831 5.42571 9.21458L7.42644 7.9321C8.11178 7.49282 8.5269 6.84833 8.69487 5.98472C9.44109 2.14794 6.35636 1.08364 4.73774 2.60908C3.84235 3.45299 3.47443 4.94096 3.45027 6.16436C1.84651 6.93606 1.04542 9.15107 3.25291 11.8123C4.05926 12.7844 5.01722 13.5239 5.96409 13.9198C5.45928 16.4781 5.55833 19.9504 7.0833 22.0733C9.54739 25.5036 15.8018 24.7415 15.7203 16.6136C16.8257 16.407 17.8254 15.7685 18.6513 15.0046C18.648 14.9834 18.6453 14.962 18.6439 14.9402C18.544 13.4417 17.1233 11.6778 16.0136 11.2164C15.63 11.057 15.4484 10.6168 15.6078 10.2331C15.7673 9.84958 16.2074 9.66783 16.5911 9.82734C17.8615 10.3555 19.3149 11.9149 19.8949 13.6286C21.0062 12.1856 21.7553 10.5886 22.0078 9.11938C22.5135 6.17583 20.9049 4.65762 18.8979 4.75776ZM13.8553 14.5548C13.5699 14.8547 13.0938 14.8683 12.7919 14.581C12.0633 13.8875 11.3674 13.6486 10.556 13.6486C10.1451 13.6486 9.80948 13.3183 9.80407 12.9063C9.79862 12.4909 10.1309 12.1497 10.5463 12.1443C11.7854 12.1272 12.8597 12.5686 13.8291 13.4913C14.13 13.7777 14.1418 14.2538 13.8553 14.5548Z" fill="#1E1D2B"/>
</g>
<defs>
<clipPath id="clip0">
<rect width="24" height="24" fill="white"/>
</clipPath>
</defs>
</svg>
