<svg width="20" height="20" viewBox="0 0 20 20" fill="none" xmlns="http://www.w3.org/2000/svg">
<path d="M3.125 11.25C3.125 10.587 3.38839 9.95107 3.85723 9.48223C4.32607 9.01339 4.96196 8.75 5.625 8.75H14.375C15.038 8.75 15.6739 9.01339 16.1428 9.48223C16.6116 9.95107 16.875 10.587 16.875 11.25V17.5C16.875 18.163 16.6116 18.7989 16.1428 19.2678C15.6739 19.7366 15.038 20 14.375 20H5.625C4.96196 20 4.32607 19.7366 3.85723 19.2678C3.38839 18.7989 3.125 18.163 3.125 17.5V11.25Z" fill="#7F8FA4"/>
<path fill-rule="evenodd" clip-rule="evenodd" d="M5.625 5C5.625 3.83968 6.08594 2.72688 6.90641 1.90641C7.72688 1.08594 8.83968 0.625 10 0.625C11.1603 0.625 12.2731 1.08594 13.0936 1.90641C13.9141 2.72688 14.375 3.83968 14.375 5V8.75H13.125V5C13.125 4.1712 12.7958 3.37634 12.2097 2.79029C11.6237 2.20424 10.8288 1.875 10 1.875C9.1712 1.875 8.37634 2.20424 7.79029 2.79029C7.20424 3.37634 6.875 4.1712 6.875 5V8.75H5.625V5Z" fill="#7F8FA4"/>
</svg>
