<svg width="20" height="20" viewBox="0 0 20 20" fill="none" xmlns="http://www.w3.org/2000/svg">
<path fill-rule="evenodd" clip-rule="evenodd" d="M2.83394 1.22503C3.03894 1.02 3.28519 0.860914 3.55636 0.758311C3.82753 0.655709 4.11741 0.61194 4.40679 0.629907C4.69616 0.647875 4.9784 0.727169 5.2348 0.862528C5.49119 0.997888 5.71587 1.18622 5.89394 1.41503L7.99519 4.11753C8.38144 4.61253 8.51769 5.25878 8.36519 5.86753L7.72394 8.43378C7.69059 8.56694 7.69229 8.70646 7.72887 8.83877C7.76545 8.97108 7.83567 9.09166 7.93269 9.18878L10.8127 12.0675C10.9098 12.1645 11.0304 12.2348 11.1627 12.2713C11.295 12.3079 11.4345 12.3096 11.5677 12.2763L14.1327 11.635C14.4335 11.5599 14.7475 11.5542 15.0509 11.6183C15.3543 11.6824 15.6392 11.8146 15.8839 12.005L18.5864 14.1063C19.5577 14.8613 19.6477 16.2975 18.7777 17.1663L17.5652 18.3788C16.6989 19.245 15.4027 19.6263 14.1939 19.2013C11.1019 18.113 8.29463 16.3425 5.98019 14.0213C3.65849 11.707 1.88762 8.89963 0.798936 5.80753C0.373936 4.59878 0.755186 3.30253 1.62144 2.43503L2.83394 1.22378V1.22503Z" fill="#E8EDF7"/>
</svg>
