<svg width="60" height="60" viewBox="0 0 60 60" fill="none" xmlns="http://www.w3.org/2000/svg">
<rect width="60" height="60" rx="30" fill="#272938"/>
<path fill-rule="evenodd" clip-rule="evenodd" d="M18.75 43.5C18.75 43.5 16.5 43.5 16.5 41.25C16.5 39 18.75 32.25 30 32.25C41.25 32.25 43.5 39 43.5 41.25C43.5 43.5 41.25 43.5 41.25 43.5H18.75ZM30 30C31.7902 30 33.5071 29.2888 34.773 28.023C36.0388 26.7571 36.75 25.0402 36.75 23.25C36.75 21.4598 36.0388 19.7429 34.773 18.477C33.5071 17.2112 31.7902 16.5 30 16.5C28.2098 16.5 26.4929 17.2112 25.227 18.477C23.9612 19.7429 23.25 21.4598 23.25 23.25C23.25 25.0402 23.9612 26.7571 25.227 28.023C26.4929 29.2888 28.2098 30 30 30Z" fill="#EDEDEF"/>
</svg>
