<svg width="70" height="70" viewBox="0 0 70 70" fill="none" xmlns="http://www.w3.org/2000/svg">
<path d="M35 67.8125C53.1218 67.8125 67.8125 53.1218 67.8125 35C67.8125 16.8782 53.1218 2.1875 35 2.1875C16.8782 2.1875 2.1875 16.8782 2.1875 35C2.1875 53.1218 16.8782 67.8125 35 67.8125Z" fill="#FF9811"/>
<path d="M35 62.3438C50.1015 62.3438 62.3438 50.1015 62.3438 35C62.3438 19.8985 50.1015 7.65625 35 7.65625C19.8985 7.65625 7.65625 19.8985 7.65625 35C7.65625 50.1015 19.8985 62.3438 35 62.3438Z" fill="#FFDA44"/>
<path d="M12.5715 12.5716L57.4284 57.4284Z" fill="#FF5023"/>
<path d="M12.5715 57.4284L57.4284 12.5716Z" fill="#FF5023"/>
<path d="M27.3438 20.7812C29.76 20.7812 31.7188 18.8225 31.7188 16.4062C31.7188 13.99 29.76 12.0312 27.3438 12.0312C24.9275 12.0312 22.9688 13.99 22.9688 16.4062C22.9688 18.8225 24.9275 20.7812 27.3438 20.7812Z" fill="#AB2300"/>
<path d="M15.3125 27.3438C16.5206 27.3438 17.5 26.3644 17.5 25.1562C17.5 23.9481 16.5206 22.9688 15.3125 22.9688C14.1044 22.9688 13.125 23.9481 13.125 25.1562C13.125 26.3644 14.1044 27.3438 15.3125 27.3438Z" fill="#FF5023"/>
<path d="M21.875 31.7188C23.0831 31.7188 24.0625 30.7394 24.0625 29.5312C24.0625 28.3231 23.0831 27.3438 21.875 27.3438C20.6669 27.3438 19.6875 28.3231 19.6875 29.5312C19.6875 30.7394 20.6669 31.7188 21.875 31.7188Z" fill="#FF5023"/>
<path d="M16.9531 47.5781C19.3694 47.5781 21.3281 45.6194 21.3281 43.2031C21.3281 40.7869 19.3694 38.8281 16.9531 38.8281C14.5369 38.8281 12.5781 40.7869 12.5781 43.2031C12.5781 45.6194 14.5369 47.5781 16.9531 47.5781Z" fill="#AB2300"/>
<path d="M25.7031 57.4219C26.9112 57.4219 27.8906 56.4425 27.8906 55.2344C27.8906 54.0263 26.9112 53.0469 25.7031 53.0469C24.495 53.0469 23.5156 54.0263 23.5156 55.2344C23.5156 56.4425 24.495 57.4219 25.7031 57.4219Z" fill="#FF5023"/>
<path d="M30.0781 50.8594C31.2862 50.8594 32.2656 49.88 32.2656 48.6719C32.2656 47.4638 31.2862 46.4844 30.0781 46.4844C28.87 46.4844 27.8906 47.4638 27.8906 48.6719C27.8906 49.88 28.87 50.8594 30.0781 50.8594Z" fill="#FF5023"/>
<path d="M42.6562 57.9688C45.0725 57.9688 47.0312 56.01 47.0312 53.5938C47.0312 51.1775 45.0725 49.2188 42.6562 49.2188C40.24 49.2188 38.2812 51.1775 38.2812 53.5938C38.2812 56.01 40.24 57.9688 42.6562 57.9688Z" fill="#AB2300"/>
<path d="M54.6875 47.0312C55.8956 47.0312 56.875 46.0519 56.875 44.8438C56.875 43.6356 55.8956 42.6562 54.6875 42.6562C53.4794 42.6562 52.5 43.6356 52.5 44.8438C52.5 46.0519 53.4794 47.0312 54.6875 47.0312Z" fill="#FF5023"/>
<path d="M48.125 42.6562C49.3331 42.6562 50.3125 41.6769 50.3125 40.4688C50.3125 39.2606 49.3331 38.2812 48.125 38.2812C46.9169 38.2812 45.9375 39.2606 45.9375 40.4688C45.9375 41.6769 46.9169 42.6562 48.125 42.6562Z" fill="#FF5023"/>
<path d="M53.0469 31.1719C55.4631 31.1719 57.4219 29.2131 57.4219 26.7969C57.4219 24.3806 55.4631 22.4219 53.0469 22.4219C50.6306 22.4219 48.6719 24.3806 48.6719 26.7969C48.6719 29.2131 50.6306 31.1719 53.0469 31.1719Z" fill="#AB2300"/>
<path d="M44.2969 16.9531C45.505 16.9531 46.4844 15.9737 46.4844 14.7656C46.4844 13.5575 45.505 12.5781 44.2969 12.5781C43.0888 12.5781 42.1094 13.5575 42.1094 14.7656C42.1094 15.9737 43.0888 16.9531 44.2969 16.9531Z" fill="#FF5023"/>
<path d="M39.9219 23.5156C41.13 23.5156 42.1094 22.5362 42.1094 21.3281C42.1094 20.12 41.13 19.1406 39.9219 19.1406C38.7138 19.1406 37.7344 20.12 37.7344 21.3281C37.7344 22.5362 38.7138 23.5156 39.9219 23.5156Z" fill="#FF5023"/>
<path d="M35 1.09375C28.294 1.09375 21.7386 3.08232 16.1627 6.80798C10.5869 10.5336 6.24101 15.8291 3.67472 22.0246C1.10844 28.2202 0.436984 35.0376 1.74526 41.6148C3.05354 48.1919 6.2828 54.2335 11.0247 58.9753C15.7666 63.7172 21.8081 66.9465 28.3852 68.2547C34.9624 69.563 41.7798 68.8916 47.9754 66.3253C54.1709 63.759 59.4664 59.4132 63.192 53.8373C66.9177 48.2614 68.9063 41.706 68.9063 35C68.8961 26.0106 65.3206 17.3923 58.9642 11.0359C52.6077 4.67939 43.9894 1.10388 35 1.09375V1.09375ZM66.6914 33.9062H63.4102C63.1537 27.1261 60.4722 20.6633 55.8535 15.6931L58.1733 13.3733C63.4064 18.9597 66.4332 26.256 66.6914 33.9062V33.9062ZM54.3069 14.1466C49.3367 9.5278 42.8739 6.84633 36.0938 6.58984V3.30859C43.744 3.56677 51.0403 6.59366 56.6267 11.8267L54.3069 14.1466ZM33.9063 32.3597L17.2386 15.692C21.7981 11.4826 27.706 9.0317 33.9063 8.77734V32.3597ZM33.9063 61.2227C27.706 60.9683 21.7981 58.5174 17.2386 54.308L33.9063 37.6403V61.2227ZM36.0938 37.6403L52.7614 54.308C48.2019 58.5174 42.2941 60.9683 36.0938 61.2227V37.6403ZM36.0938 8.77734C42.2941 9.0317 48.2019 11.4826 52.7614 15.692L36.0938 32.3597V8.77734ZM33.9063 6.58984C27.1262 6.84633 20.6633 9.5278 15.6931 14.1466L13.3733 11.8267C18.9597 6.59366 26.256 3.56677 33.9063 3.30859V6.58984ZM32.3597 33.9062H8.77736C9.03171 27.7059 11.4826 21.7981 15.692 17.2386L32.3597 33.9062ZM32.3597 36.0938L15.692 52.7614C11.4826 48.2019 9.03171 42.2941 8.77736 36.0938H32.3597ZM15.6931 55.8534C20.6633 60.4722 27.1262 63.1537 33.9063 63.4102V66.6914C26.256 66.4332 18.9597 63.4063 13.3733 58.1733L15.6931 55.8534ZM36.0938 63.4102C42.8739 63.1537 49.3367 60.4722 54.3069 55.8534L56.6267 58.1733C51.0403 63.4063 43.744 66.4332 36.0938 66.6914V63.4102ZM37.6403 36.0938H61.2227C60.9683 42.2941 58.5174 48.2019 54.308 52.7614L37.6403 36.0938ZM37.6403 33.9062L54.308 17.2386C58.5174 21.7981 60.9683 27.7059 61.2227 33.9062H37.6403ZM11.8278 13.3733L14.1477 15.6931C9.52851 20.6631 6.84664 27.126 6.58986 33.9062H3.30861C3.56678 26.256 6.59367 18.9597 11.8267 13.3733H11.8278ZM3.30861 36.0938H6.58986C6.84634 42.8739 9.52781 49.3367 14.1466 54.3069L11.8267 56.6267C6.59367 51.0403 3.56678 43.744 3.30861 36.0938V36.0938ZM58.1733 56.6267L55.8535 54.3069C60.4722 49.3367 63.1537 42.8739 63.4102 36.0938H66.6914C66.4332 43.744 63.4064 51.0403 58.1733 56.6267V56.6267Z" fill="#231F20"/>
<path d="M27.3437 21.875C28.4254 21.875 29.4827 21.5543 30.382 20.9534C31.2813 20.3524 31.9823 19.4983 32.3962 18.4991C32.8101 17.4998 32.9184 16.4002 32.7074 15.3394C32.4964 14.2785 31.9756 13.3041 31.2107 12.5393C30.4459 11.7744 29.4715 11.2536 28.4106 11.0426C27.3498 10.8316 26.2502 10.9399 25.2509 11.3538C24.2517 11.7677 23.3976 12.4686 22.7966 13.368C22.1957 14.2673 21.875 15.3246 21.875 16.4063C21.8767 17.8561 22.4535 19.2461 23.4787 20.2713C24.5039 21.2965 25.8939 21.8733 27.3437 21.875V21.875ZM27.3437 13.125C27.9927 13.125 28.6271 13.3174 29.1667 13.678C29.7063 14.0385 30.1269 14.551 30.3752 15.1506C30.6236 15.7501 30.6886 16.4099 30.5619 17.0464C30.4353 17.6829 30.1228 18.2676 29.6639 18.7264C29.205 19.1853 28.6204 19.4978 27.9839 19.6245C27.3474 19.7511 26.6876 19.6861 26.0881 19.4377C25.4885 19.1894 24.976 18.7688 24.6155 18.2292C24.2549 17.6896 24.0625 17.0552 24.0625 16.4063C24.0625 15.536 24.4082 14.7014 25.0236 14.0861C25.6389 13.4707 26.4735 13.125 27.3437 13.125V13.125Z" fill="#231F20"/>
<path d="M15.3125 28.4375C15.9615 28.4375 16.5959 28.2451 17.1355 27.8845C17.6751 27.524 18.0956 27.0115 18.344 26.4119C18.5923 25.8124 18.6573 25.1526 18.5307 24.5161C18.4041 23.8796 18.0916 23.2949 17.6327 22.8361C17.1738 22.3772 16.5891 22.0647 15.9526 21.938C15.3161 21.8114 14.6564 21.8764 14.0568 22.1248C13.4572 22.3731 12.9448 22.7937 12.5842 23.3333C12.2237 23.8729 12.0313 24.5073 12.0312 25.1563C12.0312 26.0265 12.377 26.8611 12.9923 27.4764C13.6077 28.0918 14.4423 28.4375 15.3125 28.4375V28.4375ZM15.3125 24.0625C15.5288 24.0625 15.7403 24.1266 15.9202 24.2468C16.1 24.367 16.2402 24.5378 16.323 24.7377C16.4058 24.9375 16.4274 25.1575 16.3852 25.3696C16.343 25.5818 16.2389 25.7767 16.0859 25.9296C15.9329 26.0826 15.738 26.1868 15.5259 26.229C15.3137 26.2712 15.0938 26.2495 14.8939 26.1667C14.6941 26.084 14.5233 25.9438 14.4031 25.7639C14.2829 25.584 14.2187 25.3726 14.2187 25.1563C14.2187 24.8662 14.334 24.588 14.5391 24.3829C14.7442 24.1777 15.0224 24.0625 15.3125 24.0625V24.0625Z" fill="#231F20"/>
<path d="M21.875 32.8125C22.524 32.8125 23.1584 32.6201 23.698 32.2595C24.2376 31.899 24.6581 31.3865 24.9065 30.7869C25.1548 30.1874 25.2198 29.5276 25.0932 28.8911C24.9666 28.2546 24.6541 27.6699 24.1952 27.2111C23.7363 26.7522 23.1516 26.4397 22.5151 26.313C21.8786 26.1864 21.2189 26.2514 20.6193 26.4998C20.0197 26.7481 19.5073 27.1687 19.1467 27.7083C18.7862 28.2479 18.5938 28.8823 18.5938 29.5313C18.5938 30.4015 18.9395 31.2361 19.5548 31.8514C20.1702 32.4668 21.0048 32.8125 21.875 32.8125ZM21.875 28.4375C22.0913 28.4375 22.3028 28.5016 22.4827 28.6218C22.6625 28.742 22.8027 28.9128 22.8855 29.1127C22.9683 29.3125 22.9899 29.5325 22.9477 29.7446C22.9055 29.9568 22.8014 30.1517 22.6484 30.3046C22.4954 30.4576 22.3005 30.5618 22.0884 30.604C21.8762 30.6462 21.6563 30.6245 21.4564 30.5417C21.2566 30.459 21.0858 30.3188 20.9656 30.1389C20.8454 29.959 20.7812 29.7476 20.7812 29.5313C20.7812 29.2412 20.8965 28.963 21.1016 28.7579C21.3067 28.5527 21.5849 28.4375 21.875 28.4375Z" fill="#231F20"/>
<path d="M16.9531 48.6719C18.0347 48.6719 19.0921 48.3511 19.9914 47.7502C20.8907 47.1493 21.5917 46.2952 22.0056 45.2959C22.4195 44.2966 22.5278 43.1971 22.3168 42.1362C22.1058 41.0754 21.5849 40.101 20.8201 39.3361C20.0553 38.5713 19.0809 38.0505 18.02 37.8395C16.9592 37.6284 15.8596 37.7367 14.8603 38.1507C13.861 38.5646 13.0069 39.2655 12.406 40.1648C11.8051 41.0642 11.4844 42.1215 11.4844 43.2031C11.4861 44.653 12.0628 46.043 13.0881 47.0682C14.1133 48.0934 15.5033 48.6701 16.9531 48.6719V48.6719ZM16.9531 39.9219C17.6021 39.9219 18.2365 40.1143 18.7761 40.4749C19.3157 40.8354 19.7363 41.3479 19.9846 41.9474C20.233 42.547 20.2979 43.2068 20.1713 43.8433C20.0447 44.4798 19.7322 45.0644 19.2733 45.5233C18.8144 45.9822 18.2298 46.2947 17.5933 46.4213C16.9568 46.5479 16.297 46.4829 15.6974 46.2346C15.0979 45.9862 14.5854 45.5657 14.2249 45.0261C13.8643 44.4865 13.6719 43.8521 13.6719 43.2031C13.6719 42.3329 14.0176 41.4983 14.6329 40.8829C15.2483 40.2676 16.0829 39.9219 16.9531 39.9219V39.9219Z" fill="#231F20"/>
<path d="M25.7031 58.5156C26.3521 58.5156 26.9865 58.3232 27.5261 57.9626C28.0657 57.6021 28.4862 57.0896 28.7346 56.4901C28.9829 55.8905 29.0479 55.2307 28.9213 54.5942C28.7947 53.9577 28.4822 53.3731 28.0233 52.9142C27.5644 52.4553 26.9798 52.1428 26.3433 52.0162C25.7068 51.8896 25.047 51.9545 24.4474 52.2029C23.8479 52.4512 23.3354 52.8718 22.9749 53.4114C22.6143 53.951 22.4219 54.5854 22.4219 55.2344C22.4219 56.1046 22.7676 56.9392 23.3829 57.5546C23.9983 58.1699 24.8329 58.5156 25.7031 58.5156ZM25.7031 54.1406C25.9194 54.1406 26.1309 54.2048 26.3108 54.325C26.4906 54.4451 26.6308 54.616 26.7136 54.8158C26.7964 55.0157 26.8181 55.2356 26.7759 55.4478C26.7337 55.6599 26.6295 55.8548 26.4765 56.0078C26.3236 56.1607 26.1287 56.2649 25.9165 56.3071C25.7043 56.3493 25.4844 56.3277 25.2846 56.2449C25.0847 56.1621 24.9139 56.0219 24.7937 55.842C24.6735 55.6622 24.6094 55.4507 24.6094 55.2344C24.6094 54.9443 24.7246 54.6661 24.9297 54.461C25.1348 54.2559 25.413 54.1406 25.7031 54.1406Z" fill="#231F20"/>
<path d="M30.0781 51.9531C30.7271 51.9531 31.3615 51.7607 31.9011 51.4001C32.4407 51.0396 32.8613 50.5271 33.1096 49.9276C33.358 49.328 33.4229 48.6682 33.2963 48.0317C33.1697 47.3952 32.8572 46.8106 32.3983 46.3517C31.9394 45.8928 31.3548 45.5803 30.7183 45.4537C30.0818 45.3271 29.422 45.392 28.8224 45.6404C28.2229 45.8887 27.7104 46.3093 27.3499 46.8489C26.9893 47.3885 26.7969 48.0229 26.7969 48.6719C26.7969 49.5421 27.1426 50.3767 27.7579 50.9921C28.3733 51.6074 29.2079 51.9531 30.0781 51.9531ZM30.0781 47.5781C30.2944 47.5781 30.5059 47.6423 30.6858 47.7625C30.8656 47.8826 31.0058 48.0535 31.0886 48.2533C31.1714 48.4532 31.1931 48.6731 31.1509 48.8853C31.1087 49.0974 31.0045 49.2923 30.8515 49.4453C30.6986 49.5982 30.5037 49.7024 30.2915 49.7446C30.0793 49.7868 29.8594 49.7652 29.6596 49.6824C29.4597 49.5996 29.2889 49.4594 29.1687 49.2795C29.0485 49.0997 28.9844 48.8882 28.9844 48.6719C28.9844 48.3818 29.0996 48.1036 29.3047 47.8985C29.5098 47.6934 29.788 47.5781 30.0781 47.5781Z" fill="#231F20"/>
<path d="M14.2188 30.625H13.125C12.8349 30.625 12.5567 30.7402 12.3516 30.9454C12.1465 31.1505 12.0312 31.4287 12.0312 31.7188C12.0312 32.0088 12.1465 32.287 12.3516 32.4921C12.5567 32.6973 12.8349 32.8125 13.125 32.8125H14.2188C14.5088 32.8125 14.787 32.6973 14.9921 32.4921C15.1973 32.287 15.3125 32.0088 15.3125 31.7188C15.3125 31.4287 15.1973 31.1505 14.9921 30.9454C14.787 30.7402 14.5088 30.625 14.2188 30.625Z" fill="#231F20"/>
<path d="M31.7188 22.9688H30.625C30.3349 22.9688 30.0567 23.084 29.8516 23.2891C29.6465 23.4942 29.5312 23.7724 29.5312 24.0625C29.5312 24.3526 29.6465 24.6308 29.8516 24.8359C30.0567 25.041 30.3349 25.1562 30.625 25.1562H31.7188C32.0088 25.1562 32.287 25.041 32.4921 24.8359C32.6973 24.6308 32.8125 24.3526 32.8125 24.0625C32.8125 23.7724 32.6973 23.4942 32.4921 23.2891C32.287 23.084 32.0088 22.9688 31.7188 22.9688Z" fill="#231F20"/>
<path d="M25.1562 40.4688H26.25C26.5401 40.4688 26.8183 40.3535 27.0234 40.1484C27.2285 39.9433 27.3438 39.6651 27.3438 39.375C27.3438 39.0849 27.2285 38.8067 27.0234 38.6016C26.8183 38.3965 26.5401 38.2812 26.25 38.2812H25.1562C24.8662 38.2812 24.588 38.3965 24.3829 38.6016C24.1777 38.8067 24.0625 39.0849 24.0625 39.375C24.0625 39.6651 24.1777 39.9433 24.3829 40.1484C24.588 40.3535 24.8662 40.4688 25.1562 40.4688Z" fill="#231F20"/>
<path d="M30.9455 53.9142L29.8517 55.008C29.7473 55.1089 29.6639 55.2296 29.6066 55.363C29.5493 55.4964 29.5191 55.64 29.5179 55.7852C29.5166 55.9304 29.5443 56.0744 29.5993 56.2089C29.6543 56.3433 29.7355 56.4654 29.8382 56.5681C29.9409 56.6708 30.063 56.752 30.1974 56.807C30.3318 56.862 30.4758 56.8897 30.6211 56.8884C30.7663 56.8871 30.9098 56.857 31.0433 56.7996C31.1767 56.7423 31.2974 56.659 31.3983 56.5545L32.492 55.4608C32.6913 55.2545 32.8015 54.9782 32.799 54.6914C32.7965 54.4047 32.6815 54.1303 32.4787 53.9275C32.2759 53.7248 32.0016 53.6097 31.7148 53.6072C31.428 53.6047 31.1518 53.715 30.9455 53.9142V53.9142Z" fill="#231F20"/>
<path d="M42.6563 48.125C41.5746 48.125 40.5173 48.4457 39.618 49.0467C38.7186 49.6476 38.0177 50.5017 37.6038 51.501C37.1899 52.5002 37.0816 53.5998 37.2926 54.6607C37.5036 55.7215 38.0244 56.6959 38.7893 57.4608C39.5541 58.2256 40.5285 58.7464 41.5894 58.9574C42.6502 59.1684 43.7498 59.0601 44.7491 58.6462C45.7483 58.2323 46.6024 57.5314 47.2034 56.632C47.8043 55.7327 48.125 54.6754 48.125 53.5938C48.1233 52.1439 47.5465 50.7539 46.5213 49.7287C45.4961 48.7035 44.1061 48.1267 42.6563 48.125V48.125ZM42.6563 56.875C42.0073 56.875 41.3729 56.6826 40.8333 56.322C40.2937 55.9615 39.8731 55.449 39.6248 54.8494C39.3764 54.2499 39.3114 53.5901 39.4381 52.9536C39.5647 52.3171 39.8772 51.7325 40.3361 51.2736C40.795 50.8147 41.3796 50.5022 42.0161 50.3756C42.6526 50.2489 43.3124 50.3139 43.9119 50.5623C44.5115 50.8106 45.024 51.2312 45.3845 51.7708C45.7451 52.3104 45.9375 52.9448 45.9375 53.5938C45.9375 54.464 45.5918 55.2986 44.9765 55.914C44.3611 56.5293 43.5265 56.875 42.6563 56.875Z" fill="#231F20"/>
<path d="M54.6875 41.5625C54.0385 41.5625 53.4041 41.7549 52.8645 42.1155C52.3249 42.476 51.9044 42.9885 51.656 43.5881C51.4077 44.1876 51.3427 44.8474 51.4693 45.4839C51.5959 46.1204 51.9084 46.7051 52.3673 47.1639C52.8262 47.6228 53.4109 47.9354 54.0474 48.062C54.6839 48.1886 55.3436 48.1236 55.9432 47.8752C56.5428 47.6269 57.0552 47.2063 57.4158 46.6667C57.7763 46.1271 57.9688 45.4927 57.9688 44.8438C57.9688 43.9735 57.6231 43.1389 57.0077 42.5236C56.3923 41.9082 55.5577 41.5625 54.6875 41.5625V41.5625ZM54.6875 45.9375C54.4712 45.9375 54.2597 45.8734 54.0799 45.7532C53.9 45.633 53.7598 45.4622 53.677 45.2623C53.5942 45.0625 53.5726 44.8425 53.6148 44.6304C53.657 44.4182 53.7611 44.2233 53.9141 44.0704C54.0671 43.9174 54.262 43.8132 54.4741 43.771C54.6863 43.7288 54.9062 43.7505 55.1061 43.8333C55.3059 43.916 55.4767 44.0562 55.5969 44.2361C55.7171 44.416 55.7813 44.6274 55.7813 44.8438C55.7813 45.1338 55.666 45.412 55.4609 45.6172C55.2558 45.8223 54.9776 45.9375 54.6875 45.9375Z" fill="#231F20"/>
<path d="M48.125 37.1875C47.476 37.1875 46.8416 37.3799 46.302 37.7405C45.7624 38.101 45.3419 38.6135 45.0935 39.2131C44.8452 39.8126 44.7802 40.4724 44.9068 41.1089C45.0334 41.7454 45.3459 42.3301 45.8048 42.7889C46.2637 43.2478 46.8484 43.5604 47.4849 43.687C48.1214 43.8136 48.7811 43.7486 49.3807 43.5002C49.9803 43.2519 50.4927 42.8313 50.8533 42.2917C51.2138 41.7521 51.4063 41.1177 51.4063 40.4688C51.4063 39.5985 51.0606 38.7639 50.4452 38.1486C49.8298 37.5332 48.9952 37.1875 48.125 37.1875ZM48.125 41.5625C47.9087 41.5625 47.6972 41.4984 47.5174 41.3782C47.3375 41.258 47.1973 41.0872 47.1145 40.8873C47.0317 40.6875 47.0101 40.4675 47.0523 40.2554C47.0945 40.0432 47.1986 39.8483 47.3516 39.6954C47.5046 39.5424 47.6995 39.4382 47.9116 39.396C48.1238 39.3538 48.3437 39.3755 48.5436 39.4583C48.7434 39.541 48.9142 39.6812 49.0344 39.8611C49.1546 40.041 49.2188 40.2524 49.2188 40.4688C49.2188 40.7588 49.1035 41.037 48.8984 41.2422C48.6933 41.4473 48.4151 41.5625 48.125 41.5625Z" fill="#231F20"/>
<path d="M53.0469 21.3281C51.9653 21.3281 50.9079 21.6489 50.0086 22.2498C49.1093 22.8507 48.4083 23.7048 47.9944 24.7041C47.5805 25.7034 47.4722 26.8029 47.6832 27.8638C47.8942 28.9246 48.4151 29.899 49.1799 30.6639C49.9447 31.4287 50.9191 31.9495 51.98 32.1605C53.0408 32.3716 54.1404 32.2633 55.1397 31.8493C56.139 31.4354 56.9931 30.7345 57.594 29.8351C58.1949 28.9358 58.5156 27.8785 58.5156 26.7969C58.5139 25.347 57.9372 23.957 56.912 22.9318C55.8867 21.9066 54.4968 21.3299 53.0469 21.3281V21.3281ZM53.0469 30.0781C52.3979 30.0781 51.7635 29.8857 51.2239 29.5251C50.6843 29.1646 50.2638 28.6521 50.0154 28.0526C49.7671 27.453 49.7021 26.7932 49.8287 26.1567C49.9553 25.5202 50.2678 24.9356 50.7267 24.4767C51.1856 24.0178 51.7702 23.7053 52.4067 23.5787C53.0432 23.4521 53.703 23.517 54.3026 23.7654C54.9021 24.0137 55.4146 24.4343 55.7751 24.9739C56.1357 25.5135 56.3281 26.1479 56.3281 26.7969C56.3281 27.6671 55.9824 28.5017 55.3671 29.1171C54.7517 29.7324 53.9171 30.0781 53.0469 30.0781V30.0781Z" fill="#231F20"/>
<path d="M44.2969 11.4844C43.6479 11.4844 43.0135 11.6768 42.4739 12.0374C41.9343 12.3979 41.5137 12.9104 41.2654 13.5099C41.017 14.1095 40.9521 14.7693 41.0787 15.4058C41.2053 16.0423 41.5178 16.6269 41.9767 17.0858C42.4356 17.5447 43.0202 17.8572 43.6567 17.9838C44.2932 18.1104 44.953 18.0455 45.5526 17.7971C46.1521 17.5488 46.6646 17.1282 47.0251 16.5886C47.3857 16.049 47.5781 15.4146 47.5781 14.7656C47.5781 13.8954 47.2324 13.0608 46.6171 12.4454C46.0017 11.8301 45.1671 11.4844 44.2969 11.4844ZM44.2969 15.8594C44.0806 15.8594 43.8691 15.7952 43.6892 15.675C43.5094 15.5549 43.3692 15.384 43.2864 15.1842C43.2036 14.9843 43.1819 14.7644 43.2241 14.5522C43.2663 14.3401 43.3705 14.1452 43.5235 13.9922C43.6764 13.8393 43.8713 13.7351 44.0835 13.6929C44.2957 13.6507 44.5156 13.6723 44.7154 13.7551C44.9153 13.8379 45.0861 13.9781 45.2063 14.158C45.3265 14.3378 45.3906 14.5493 45.3906 14.7656C45.3906 15.0557 45.2754 15.3339 45.0703 15.539C44.8652 15.7441 44.587 15.8594 44.2969 15.8594Z" fill="#231F20"/>
<path d="M39.9219 18.0469C39.2729 18.0469 38.6385 18.2393 38.0989 18.5999C37.5593 18.9604 37.1387 19.4729 36.8904 20.0724C36.642 20.672 36.5771 21.3318 36.7037 21.9683C36.8303 22.6048 37.1428 23.1894 37.6017 23.6483C38.0606 24.1072 38.6452 24.4197 39.2817 24.5463C39.9182 24.6729 40.578 24.608 41.1776 24.3596C41.7771 24.1113 42.2896 23.6907 42.6501 23.1511C43.0107 22.6115 43.2031 21.9771 43.2031 21.3281C43.2031 20.4579 42.8574 19.6233 42.2421 19.0079C41.6267 18.3926 40.7921 18.0469 39.9219 18.0469ZM39.9219 22.4219C39.7056 22.4219 39.4941 22.3577 39.3142 22.2375C39.1344 22.1174 38.9942 21.9465 38.9114 21.7467C38.8286 21.5468 38.8069 21.3269 38.8491 21.1147C38.8913 20.9026 38.9955 20.7077 39.1485 20.5547C39.3014 20.4018 39.4963 20.2976 39.7085 20.2554C39.9207 20.2132 40.1406 20.2348 40.3404 20.3176C40.5403 20.4004 40.7111 20.5406 40.8313 20.7205C40.9515 20.9003 41.0156 21.1118 41.0156 21.3281C41.0156 21.6182 40.9004 21.8964 40.6953 22.1015C40.4902 22.3066 40.212 22.4219 39.9219 22.4219Z" fill="#231F20"/>
<path d="M55.7812 39.375H56.875C57.1651 39.375 57.4433 39.2598 57.6484 39.0546C57.8535 38.8495 57.9688 38.5713 57.9688 38.2812C57.9688 37.9912 57.8535 37.713 57.6484 37.5079C57.4433 37.3027 57.1651 37.1875 56.875 37.1875H55.7812C55.4912 37.1875 55.213 37.3027 55.0079 37.5079C54.8027 37.713 54.6875 37.9912 54.6875 38.2812C54.6875 38.5713 54.8027 38.8495 55.0079 39.0546C55.213 39.2598 55.4912 39.375 55.7812 39.375Z" fill="#231F20"/>
<path d="M38.2812 47.0312H39.375C39.6651 47.0312 39.9433 46.916 40.1484 46.7109C40.3535 46.5058 40.4688 46.2276 40.4688 45.9375C40.4688 45.6474 40.3535 45.3692 40.1484 45.1641C39.9433 44.959 39.6651 44.8438 39.375 44.8438H38.2812C37.9912 44.8438 37.713 44.959 37.5079 45.1641C37.3027 45.3692 37.1875 45.6474 37.1875 45.9375C37.1875 46.2276 37.3027 46.5058 37.5079 46.7109C37.713 46.916 37.9912 47.0312 38.2812 47.0312Z" fill="#231F20"/>
<path d="M44.8438 29.5312H43.75C43.4599 29.5312 43.1817 29.6465 42.9766 29.8516C42.7715 30.0567 42.6562 30.3349 42.6562 30.625C42.6562 30.9151 42.7715 31.1933 42.9766 31.3984C43.1817 31.6035 43.4599 31.7188 43.75 31.7188H44.8438C45.1338 31.7188 45.412 31.6035 45.6171 31.3984C45.8223 31.1933 45.9375 30.9151 45.9375 30.625C45.9375 30.3349 45.8223 30.0567 45.6171 29.8516C45.412 29.6465 45.1338 29.5312 44.8438 29.5312Z" fill="#231F20"/>
<path d="M38.2813 16.4063C38.5713 16.4062 38.8495 16.2909 39.0545 16.0858L40.1483 14.992C40.3475 14.7857 40.4578 14.5095 40.4553 14.2227C40.4528 13.9359 40.3378 13.6616 40.135 13.4588C39.9322 13.256 39.6579 13.141 39.3711 13.1385C39.0843 13.136 38.808 13.2462 38.6017 13.4455L37.508 14.5392C37.3551 14.6922 37.2509 14.8871 37.2087 15.0992C37.1666 15.3113 37.1882 15.5312 37.271 15.731C37.3538 15.9309 37.4939 16.1017 37.6737 16.2218C37.8536 16.342 38.065 16.4062 38.2813 16.4063V16.4063Z" fill="#231F20"/>
</svg>
