<svg width="24" height="24" viewBox="0 0 24 24" fill="none" xmlns="http://www.w3.org/2000/svg">
<g clip-path="url(#clip0)">
<path d="M23.9855 7.87848C23.9615 6.06317 22.4681 4.59375 20.6358 4.59375C18.9988 4.59375 17.6332 5.76691 17.3434 7.31159C16.7679 7.56464 15.7683 7.9693 15.1727 8.06781C14.4545 8.18647 13.5866 8.22217 12.5931 8.17365C10.6954 8.081 8.80078 7.46686 7.11401 6.39716C4.99146 5.05133 3.18365 4.73639 1.25226 5.37598C0.503174 5.62409 0 6.32446 0 7.11914C0 7.37659 0.140808 7.61353 0.367126 7.73676C0.625854 7.87738 0.867737 7.99897 1.10175 8.11634C2.36938 8.75263 3.06775 9.10309 3.53046 11.0345C3.87616 12.4766 4.48096 13.6855 5.32837 14.6272C5.68799 15.0269 6.09229 15.3796 6.53741 15.6832H16.1603C17.614 14.5983 18.5039 12.9525 18.7485 10.8776C18.8954 9.6319 18.772 8.5459 18.6859 8.01068C18.6896 7.98194 18.692 7.95282 18.692 7.92298C18.692 6.86261 19.5639 6 20.6358 6C21.7075 6 22.5797 6.86261 22.5797 7.92298C22.5797 7.95649 22.582 7.98999 22.5868 8.02314C22.5877 8.03009 22.6653 8.72736 22.2318 9.22779C21.8763 9.63795 21.2485 9.84595 20.3657 9.84595C19.9774 9.84595 19.6626 10.1607 19.6626 10.5491C19.6626 10.9373 19.9774 11.2522 20.3657 11.2522C21.6747 11.2522 22.6602 10.8809 23.2945 10.1484C24.0725 9.25049 24.0154 8.15882 23.9855 7.87848Z" fill="#1E1D2B"/>
<path d="M6.54126 17.0892C6.50208 17.2407 6.48138 17.3994 6.48138 17.5627V18.7489C6.48138 19.1371 6.79614 19.452 7.18433 19.452H15.5581C15.9463 19.452 16.2612 19.1371 16.2612 18.7489V17.5627C16.2612 17.3994 16.2404 17.2407 16.2012 17.0892H6.54126Z" fill="#1E1D2B"/>
</g>
<defs>
<clipPath id="clip0">
<rect width="24" height="24" fill="white"/>
</clipPath>
</defs>
</svg>
