<svg width="100" height="88" viewBox="0 0 100 88" fill="none" xmlns="http://www.w3.org/2000/svg">
<path fill-rule="evenodd" clip-rule="evenodd" d="M56.1372 3.78744C55.5185 2.70972 54.6264 1.81432 53.551 1.19165C52.4755 0.568978 51.2548 0.241089 50.0122 0.241089C48.7695 0.241089 47.5488 0.568978 46.4734 1.19165C45.3979 1.81432 44.5058 2.70972 43.8872 3.78744L1.03091 76.7062C-1.82534 81.5687 1.59966 87.7499 7.15591 87.7499H92.8622C98.4184 87.7499 101.85 81.5624 98.9872 76.7062L56.1372 3.78744ZM49.9997 25.2499C49.2097 25.2504 48.4286 25.4163 47.7067 25.737C46.9847 26.0577 46.338 26.526 45.8081 27.1119C45.2781 27.6977 44.8768 28.3881 44.6299 29.1385C44.3831 29.8889 44.2961 30.6827 44.3747 31.4687L46.5622 53.3874C46.6357 54.2485 47.0296 55.0506 47.6662 55.6352C48.3027 56.2197 49.1355 56.544 49.9997 56.544C50.8639 56.544 51.6966 56.2197 52.3331 55.6352C52.9697 55.0506 53.3637 54.2485 53.4372 53.3874L55.6247 31.4687C55.7032 30.6827 55.6163 29.8889 55.3694 29.1385C55.1225 28.3881 54.7212 27.6977 54.1913 27.1119C53.6613 26.526 53.0146 26.0577 52.2927 25.737C51.5707 25.4163 50.7896 25.2504 49.9997 25.2499ZM50.0122 62.7499C48.3546 62.7499 46.7648 63.4084 45.5927 64.5805C44.4206 65.7526 43.7622 67.3423 43.7622 68.9999C43.7622 70.6575 44.4206 72.2473 45.5927 73.4194C46.7648 74.5915 48.3546 75.2499 50.0122 75.2499C51.6698 75.2499 53.2595 74.5915 54.4316 73.4194C55.6037 72.2473 56.2622 70.6575 56.2622 68.9999C56.2622 67.3423 55.6037 65.7526 54.4316 64.5805C53.2595 63.4084 51.6698 62.7499 50.0122 62.7499Z" fill="#F2E24D"/>
</svg>
