<svg width="24" height="24" viewBox="0 0 24 24" fill="none" xmlns="http://www.w3.org/2000/svg">
<path d="M0.400024 16.764C0.400024 19.415 2.54906 21.564 5.20002 21.564H18.8C21.451 21.564 23.6 19.415 23.6 16.764V15.964H0.400024V16.764ZM4.40002 17.164H21.6C21.8209 17.164 22 17.3431 22 17.564C22 17.7849 21.8209 17.964 21.6 17.964H4.40002C4.17911 17.964 4.00002 17.7849 4.00002 17.564C4.00002 17.3431 4.17911 17.164 4.40002 17.164ZM2.40002 17.164H2.80002C3.02094 17.164 3.20002 17.3431 3.20002 17.564C3.20002 17.7849 3.02094 17.964 2.80002 17.964H2.40002C2.17911 17.964 2.00002 17.7849 2.00002 17.564C2.00002 17.3431 2.17911 17.164 2.40002 17.164Z" fill="#1E1D2B"/>
<path d="M18.4001 23.6V22.4H5.60004V23.6C5.60004 23.8209 5.77912 24 6.00004 24H18.0001C18.221 24 18.4001 23.8209 18.4001 23.6Z" fill="#1E1D2B"/>
<path d="M2.98401 14.576C3.3582 14.9538 3.86831 15.1656 4.40001 15.164H19.6C20.7046 15.164 21.6 14.2686 21.6 13.164C21.6 12.0594 20.7046 11.164 19.6 11.164H16.8C16.5791 11.164 16.4 10.9849 16.4 10.764C16.4 10.5431 16.5791 10.364 16.8 10.364C17.9046 10.364 18.8 9.46858 18.8 8.36401C18.8 7.25944 17.9046 6.36401 16.8 6.36401H12.4C12.1791 6.36401 12 6.18492 12 5.96401C12 5.74309 12.1791 5.56401 12.4 5.56401H14C15.1039 5.56224 15.9983 4.66784 16 3.564C16.004 3.508 16.16 1.772 15.224 0.740001C14.8345 0.324978 14.3097 0.0625732 13.744 0C13.8544 0.846001 13.36 1.564 12 1.564H10C8.89545 1.564 8.00002 2.45943 8.00002 3.564C8.00002 4.66857 8.89545 5.56401 10 5.56401C10.2209 5.56401 10.4 5.74309 10.4 5.96401C10.4 6.18492 10.2209 6.36401 10 6.36401H7.20002C6.09545 6.36401 5.20002 7.25944 5.20002 8.36401C5.20002 9.46858 6.09545 10.364 7.20002 10.364H10.4C10.6209 10.364 10.8 10.5431 10.8 10.764C10.8 10.9849 10.6209 11.164 10.4 11.164H4.40001C3.59305 11.1669 2.86664 11.6538 2.55733 12.3991C2.24801 13.1444 2.41621 14.0026 2.98401 14.576ZM13.6 10.364H14C14.2209 10.364 14.4 10.5431 14.4 10.764C14.4 10.9849 14.2209 11.164 14 11.164H13.6C13.3791 11.164 13.2 10.9849 13.2 10.764C13.2 10.5431 13.3791 10.364 13.6 10.364Z" fill="#1E1D2B"/>
</svg>
